<?xml version="1.0" encoding="iso-8859-1"?>
<!-- Generator: Adobe Illustrator 19.0.0, SVG Export Plug-In . SVG Version: 6.00 Build 0)  -->
<svg version="1.1" id="Layer_1" xmlns="http://www.w3.org/2000/svg" xmlns:xlink="http://www.w3.org/1999/xlink" x="0px" y="0px"
	 viewBox="0 0 512.001 512.001" style="enable-background:new 0 0 512.001 512.001;" xml:space="preserve">
<g>
	<g>
		<g>
			<path d="M366.933,450.877V349.868c0-0.111-0.06-0.196-0.06-0.307c-0.034-0.922-0.162-1.852-0.504-2.739l-27.87-72.823
				c-0.102-0.256-0.213-0.512-0.341-0.759c-2.654-5.299-7.97-8.585-13.892-8.585v-85.453h-102.4v85.453
				c-5.922,0-11.238,3.285-13.892,8.585c-0.119,0.247-0.239,0.503-0.333,0.759l-27.878,72.823c-0.341,0.887-0.469,1.818-0.503,2.739
				c0,0.111-0.06,0.196-0.06,0.307v101.009l-16.631,49.894c-0.862,2.603-0.427,5.461,1.178,7.68c1.604,2.236,4.181,3.55,6.921,3.55
				h51.2h102.4h51.2c2.739,0,5.316-1.314,6.921-3.55c1.604-2.219,2.039-5.077,1.178-7.68L366.933,450.877z M273.066,196.268
				c4.71,0,8.533,3.823,8.533,8.533c0,4.71-3.823,8.533-8.533,8.533c-4.71,0-8.533-3.823-8.533-8.533
				C264.533,200.09,268.356,196.268,273.066,196.268z M273.066,230.401c4.71,0,8.533,3.823,8.533,8.533s-3.823,8.533-8.533,8.533
				c-4.71,0-8.533-3.823-8.533-8.533S268.356,230.401,273.066,230.401z M255.436,330.625l17.613-46.106l17.647,46.106l4.096,10.709
				H251.34L255.436,330.625z M215.714,494.934h-33.212l11.383-34.133h33.212L215.714,494.934z M200.14,341.334l21.726-56.764
				l0.563,1.468c0,0,0,0,0,0.009l15.898,41.532l-5.265,13.756H200.14z M233.711,494.934l11.375-34.133h55.962l11.383,34.133H233.711
				z M307.805,327.578l15.898-41.532c0.026-0.068,0.017-0.145,0.043-0.213l0.503-1.314l21.752,56.815h-32.93L307.805,327.578z
				 M330.419,494.934l-11.375-34.133h33.203l11.383,34.133H330.419z"/>
			<circle cx="392.534" cy="213.334" r="8.533"/>
			<circle cx="486.4" cy="85.334" r="8.533"/>
			<circle cx="68.267" cy="358.401" r="8.533"/>
			<circle cx="110.934" cy="136.534" r="8.533"/>
			<path d="M76.8,34.133c-14.114,0-25.6-11.486-25.6-25.6C51.2,3.823,47.378,0,42.667,0c-4.71,0-8.533,3.823-8.533,8.533
				c0,14.114-11.486,25.6-25.6,25.6C3.823,34.133,0,37.956,0,42.667c0,4.71,3.823,8.533,8.533,8.533c14.114,0,25.6,11.486,25.6,25.6
				c0,4.71,3.823,8.533,8.533,8.533c4.71,0,8.533-3.823,8.533-8.533c0-14.114,11.486-25.6,25.6-25.6c4.71,0,8.533-3.823,8.533-8.533
				C85.334,37.956,81.511,34.133,76.8,34.133z M42.667,51.226c-2.432-3.234-5.325-6.127-8.559-8.559
				c3.234-2.432,6.127-5.316,8.559-8.559c2.432,3.243,5.325,6.127,8.559,8.559C47.992,45.099,45.099,47.991,42.667,51.226z"/>
			<path d="M503.467,452.267h-13.534l-20.599-20.599v-13.534c0-4.71-3.823-8.533-8.533-8.533s-8.533,3.823-8.533,8.533v13.534
				l-20.599,20.599h-13.534c-4.71,0-8.533,3.823-8.533,8.533c0,4.71,3.823,8.533,8.533,8.533h13.534l20.599,20.599v13.534
				c0,4.71,3.823,8.533,8.533,8.533s8.533-3.823,8.533-8.533v-13.534l20.599-20.599h13.534c4.71,0,8.533-3.823,8.533-8.533
				C512,456.09,508.177,452.267,503.467,452.267z M460.8,474.334L447.267,460.8l13.534-13.534l13.534,13.534L460.8,474.334z"/>
			<path d="M286.958,8.701c-2.654-5.299-7.97-8.585-13.892-8.585c-5.922,0-11.238,3.285-14.225,9.353l-25.779,67.328h80.009
				L286.958,8.701z"/>
			<path d="M316.63,93.868h-87.125l-6.827,68.267h100.779L316.63,93.868z M281.6,136.534c0,4.71-3.823,8.533-8.533,8.533
				c-4.71,0-8.533-3.823-8.533-8.533v-17.067c0-4.71,3.823-8.533,8.533-8.533c4.71,0,8.533,3.823,8.533,8.533V136.534z"/>
		</g>
	</g>
</g>
<g>
</g>
<g>
</g>
<g>
</g>
<g>
</g>
<g>
</g>
<g>
</g>
<g>
</g>
<g>
</g>
<g>
</g>
<g>
</g>
<g>
</g>
<g>
</g>
<g>
</g>
<g>
</g>
<g>
</g>
</svg>
